<svg viewBox="0 0 281 124" fill="none" xmlns="http://www.w3.org/2000/svg"><g clip-path="url(#__2_uPwoy__clip0_391_9302)"><g opacity="0.2"><path d="M252.405 174.575C252.506 174.07 252.619 173.564 252.747 173.063C253.968 168.234 256.465 163.663 260.242 159.886C260.619 159.509 261.003 159.143 261.4 158.792C261.88 158.362 262.367 157.952 262.868 157.562C263.267 157.211 263.651 156.846 264.028 156.468C275.189 145.307 275.189 127.215 264.028 116.052C252.866 104.891 234.773 104.891 223.612 116.052C223.235 116.43 222.868 116.814 222.518 117.212C222.087 117.691 221.678 118.178 221.288 118.679C220.937 119.077 220.572 119.461 220.194 119.839C216.418 123.616 211.846 126.112 207.018 127.333C206.509 127.432 206.007 127.547 205.504 127.675C198.929 129.313 192.696 132.703 187.556 137.845C172.455 152.944 172.455 177.426 187.556 192.525C202.655 207.624 227.137 207.624 242.236 192.525C247.376 187.384 250.768 181.152 252.405 174.575Z" fill="#EF7F71"></path><path d="M186.14 165.637C170.497 165.637 157.816 152.956 157.816 137.313C157.816 121.67 170.497 108.99 186.14 108.99C201.783 108.99 214.463 121.67 214.463 137.313C214.463 152.956 201.783 165.637 186.14 165.637Z" fill="#EF7F71"></path><path d="M201.115 137.313C201.115 129.056 194.397 122.339 186.14 122.339C177.884 122.339 171.166 129.056 171.166 137.313C171.166 145.57 177.884 152.288 186.14 152.288C194.397 152.288 201.115 145.57 201.115 137.313ZM165.961 137.313C165.961 126.187 175.014 117.134 186.14 117.134C197.268 117.134 206.319 126.187 206.319 137.313C206.319 148.439 197.268 157.492 186.14 157.492C175.014 157.492 165.961 148.439 165.961 137.313Z" fill="#EF7F71"></path><path d="M157.816 137.312C157.816 121.67 170.497 108.989 186.14 108.989C201.783 108.989 214.463 121.67 214.463 137.312" fill="#EF7F71"></path><path fill-rule="evenodd" clip-rule="evenodd" d="M136.383 109.711C140.82 109.2 146.016 98.9235 140.44 97.1261C134.863 95.3286 133.079 106.706 136.383 109.711Z" fill="#EF7F71"></path><path fill-rule="evenodd" clip-rule="evenodd" d="M158.098 104.262C154.671 101.396 143.642 104.707 146.18 109.988C148.717 115.27 158.194 108.728 158.098 104.262Z" fill="#EF7F71"></path><path fill-rule="evenodd" clip-rule="evenodd" d="M187.497 97.0377C184.07 94.1715 173.041 97.4828 175.579 102.764C178.115 108.046 187.593 101.503 187.497 97.0377Z" fill="#EF7F71"></path><path fill-rule="evenodd" clip-rule="evenodd" d="M143.319 118.441C141.391 122.47 147.325 132.338 151.816 128.574C156.305 124.809 147.622 117.244 143.319 118.441Z" fill="#EF7F71"></path><path fill-rule="evenodd" clip-rule="evenodd" d="M120.656 108.959C125.056 109.725 132.951 101.342 128.111 98.0385C123.273 94.735 118.339 105.14 120.656 108.959Z" fill="#EF7F71"></path><path fill-rule="evenodd" clip-rule="evenodd" d="M107.763 107.22C103.365 106.445 95.4565 114.817 100.291 118.128C105.124 121.439 110.074 111.042 107.763 107.22Z" fill="#EF7F71"></path><path fill-rule="evenodd" clip-rule="evenodd" d="M133.147 126.156C137.03 123.947 137.781 112.455 131.946 112.988C126.111 113.521 128.93 124.686 133.147 126.156Z" fill="#EF7F71"></path><path fill-rule="evenodd" clip-rule="evenodd" d="M113.687 123.424C110.525 120.269 99.248 122.601 101.313 128.085C103.377 133.568 113.391 127.882 113.687 123.424Z" fill="#EF7F71"></path><path fill-rule="evenodd" clip-rule="evenodd" d="M159.977 73.0644C160.733 77.4668 171.283 82.0832 172.768 76.4151C174.253 70.7483 162.794 69.5981 159.977 73.0644Z" fill="#EF7F71"></path><path fill-rule="evenodd" clip-rule="evenodd" d="M130.832 71.9718C135.094 73.3097 144.019 66.0332 139.655 62.1232C135.29 58.2131 129.035 67.8819 130.832 71.9718Z" fill="#EF7F71"></path><path fill-rule="evenodd" clip-rule="evenodd" d="M154.123 96.3877C158.407 95.1246 161.764 84.1087 155.962 83.2934C150.16 82.478 150.352 93.9928 154.123 96.3877Z" fill="#EF7F71"></path><path fill-rule="evenodd" clip-rule="evenodd" d="M188.05 87.8217C188.894 83.435 180.652 75.3956 177.263 80.1749C173.874 84.9554 184.191 90.0708 188.05 87.8217Z" fill="#EF7F71"></path><path fill-rule="evenodd" clip-rule="evenodd" d="M139.133 88.6403C143.425 89.8758 152.175 82.3905 147.72 78.5855C143.264 74.7805 137.24 84.595 139.133 88.6403Z" fill="#FCBEA9"></path><path fill-rule="evenodd" clip-rule="evenodd" d="M105.602 76.9972C106.185 81.4259 116.545 86.4533 118.251 80.8482C119.958 75.2418 108.553 73.6452 105.602 76.9972Z" fill="#FCBEA9"></path><path fill-rule="evenodd" clip-rule="evenodd" d="M169.36 90.6148C165.093 91.9357 161.883 102.995 167.695 103.733C173.508 104.469 173.162 92.9598 169.36 90.6148Z" fill="#FCBEA9"></path><path fill-rule="evenodd" clip-rule="evenodd" d="M124.305 60.3356C120.88 57.4694 109.849 60.7807 112.387 66.0615C114.924 71.3436 124.401 64.801 124.305 60.3356Z" fill="#EF7F71"></path><path fill-rule="evenodd" clip-rule="evenodd" d="M130.603 92.4521C134.423 90.1374 134.857 78.6291 129.039 79.3224C123.222 80.0156 126.346 91.0985 130.603 92.4521Z" fill="#EF7F71"></path><path fill-rule="evenodd" clip-rule="evenodd" d="M152.22 69.7393C156.04 67.4245 156.474 55.9162 150.657 56.6095C144.839 57.3027 147.964 68.3856 152.22 69.7393Z" fill="#EF7F71"></path><path fill-rule="evenodd" clip-rule="evenodd" d="M122.34 91.4948C120.501 87.4245 109.129 85.61 109.117 91.4698C109.107 97.3283 120.485 95.5584 122.34 91.4948Z" fill="#EF7F71"></path><path d="M71.751 82.36C71.7615 82.3298 71.772 82.2996 71.7825 82.2694C73.4671 77.4704 71.6749 72.061 67.518 69.1304C62.2175 65.3924 55.5384 63.8536 49.0089 65.0549C46.9738 65.4291 44.9453 66.0725 42.9903 66.9968C41.1206 67.8818 39.4111 68.9755 37.8867 70.2386C38.2635 72.1818 38.8898 74.1132 39.7748 75.9815C40.6991 77.9379 41.8585 79.7222 43.1925 81.303C47.4767 86.3751 53.6162 89.4238 60.0839 89.8991C65.1559 90.2707 69.9746 87.2272 71.7182 82.4506C71.7287 82.4204 71.7405 82.3902 71.751 82.36Z" fill="#FCBEA9"></path><path d="M64.4174 85.8259C64.3872 85.8154 64.357 85.8035 64.3268 85.793C59.5502 84.0494 56.5067 79.2308 56.8783 74.1587C57.3536 67.691 60.4023 61.5515 65.4743 57.2673C67.0551 55.9333 68.8395 54.774 70.7945 53.8496C72.6642 52.9647 74.5956 52.3384 76.5388 51.9616C77.8019 53.4859 78.8956 55.1954 79.7792 57.0651C80.7049 59.0201 81.3482 61.0487 81.7224 63.0838C82.9238 69.6132 81.385 76.2923 77.6469 81.5928C74.7164 85.7497 69.3069 87.5419 64.508 85.8574C64.4778 85.8469 64.4476 85.8364 64.4174 85.8259Z" fill="#FCBEA9"></path><path d="M101.529 154.825C102.474 156.826 101.619 159.214 99.6195 160.159C97.6185 161.106 95.2302 160.251 94.2836 158.25C93.3382 156.249 94.193 153.861 96.194 152.916C98.1936 151.969 100.583 152.824 101.529 154.825ZM60.762 137.413C70.4018 157.802 89.4715 170.702 110.297 173.369C121.452 155.582 123.583 132.658 113.941 112.268C104.302 91.8792 85.2319 78.9792 64.4068 76.3126C53.253 94.0995 51.1208 117.024 60.762 137.413Z" fill="#EF7F71"></path><path d="M238.353 72.421C238.375 72.4184 238.399 72.4158 238.421 72.4118C242.056 71.9444 244.96 69.0414 245.502 65.4163C246.194 60.7946 245.026 55.997 242.14 52.1815C241.24 50.9919 240.17 49.8943 238.943 48.9345C237.769 48.0167 236.511 47.2696 235.205 46.6959C234.075 47.5677 233.036 48.5957 232.118 49.7695C231.157 50.9972 230.383 52.3207 229.796 53.6914C227.918 58.0899 227.94 63.0293 229.726 67.3477C231.126 70.7338 234.644 72.8517 238.285 72.4289C238.307 72.4263 238.331 72.4236 238.353 72.421Z" fill="#EF7F71"></path><path d="M225.952 96.8346C225.955 96.857 225.957 96.8806 225.961 96.9029C226.429 100.537 229.332 103.442 232.957 103.984C237.578 104.676 242.376 103.507 246.192 100.621C247.38 99.7219 248.479 98.6518 249.439 97.4242C250.356 96.2504 251.103 94.9925 251.677 93.6861C250.805 92.557 249.777 91.5171 248.604 90.5993C247.376 89.6382 246.052 88.8649 244.682 88.278C240.283 86.3991 235.344 86.4214 231.025 88.2071C227.639 89.608 225.521 93.1255 225.944 96.7664C225.947 96.7887 225.949 96.8123 225.952 96.8346Z" fill="#EF7F71"></path><path d="M220.131 89.8401C220.15 89.8296 220.171 89.8178 220.191 89.8073C223.4 88.0361 225.032 84.2692 224.205 80.6992C223.15 76.1458 220.299 72.1123 216.214 69.6256C214.94 68.8509 213.541 68.222 212.047 67.7808C210.618 67.3594 209.174 67.1256 207.748 67.0731C207.018 68.2981 206.428 69.6374 206.005 71.0659C205.564 72.5614 205.332 74.0765 205.29 75.5668C205.157 80.3486 206.994 84.9322 210.242 88.2921C212.79 90.9273 216.84 91.6035 220.07 89.873C220.09 89.8625 220.111 89.8507 220.131 89.8401Z" fill="#EF7F71"></path><path d="M237.365 78.5527L236.102 77.9146C239.066 72.0482 236.98 69.5234 236.958 69.4984L238.009 68.5505C238.126 68.6778 240.811 71.7371 237.365 78.5527Z" fill="#FCBEA9"></path><path d="M226.434 95.9174C225.421 96.2076 223.724 96.2102 221.078 94.9051L221.704 93.6355C225.389 95.4526 226.591 94.2814 226.603 94.2683L227.675 95.194C227.596 95.2872 227.224 95.6903 226.434 95.9174Z" fill="#FCBEA9"></path><path d="M221.655 93.7427L220.261 93.9922C219.54 89.9456 217.883 89.6738 217.867 89.6712L217.975 88.2597C218.255 88.2768 220.732 88.5709 221.655 93.7427Z" fill="#FCBEA9"></path><path d="M254.272 69.9815C252.937 70.4095 251.565 70.9609 250.241 71.5373C248.911 72.1229 247.597 72.7453 246.313 73.4267C243.737 74.7738 241.248 76.2877 238.875 77.9617C234.117 81.2927 229.848 85.2908 226.218 89.7785C224.395 92.0198 222.795 94.4278 221.331 96.9054L220.277 98.7908C219.939 99.4263 219.636 100.08 219.314 100.722L218.838 101.691L218.414 102.684L217.572 104.669C215.501 110.039 214.19 115.687 213.599 121.416L210.316 121.047C211.077 115.064 212.596 109.163 214.905 103.583L215.839 101.52L216.309 100.491L216.833 99.4867C217.186 98.821 217.522 98.1448 217.89 97.487L219.042 95.5399C220.636 92.9822 222.37 90.5085 224.325 88.2187C228.219 83.6325 232.743 79.6043 237.727 76.2903C240.214 74.6228 242.81 73.1287 245.491 71.8078C246.826 71.1395 248.193 70.5316 249.576 69.9631C250.969 69.3972 252.347 68.8772 253.831 68.44L254.272 69.9815Z" fill="#FCBEA9"></path><path d="M249.293 72.7655C249.304 72.7865 249.313 72.8075 249.323 72.8272C250.93 76.1215 254.609 77.9426 258.217 77.2966C262.817 76.472 266.989 73.829 269.68 69.8743C270.519 68.6415 271.216 67.276 271.733 65.8054C272.227 64.4005 272.531 62.9694 272.656 61.5488C271.469 60.7583 270.163 60.1018 268.757 59.6069C267.286 59.0909 265.784 58.781 264.298 58.6641C259.529 58.2913 254.858 59.8944 251.339 62.9681C248.579 65.3787 247.698 69.3898 249.263 72.7025C249.273 72.7235 249.283 72.7445 249.293 72.7655Z" fill="#EF7F71"></path><path fill-rule="evenodd" clip-rule="evenodd" d="M44.9118 126.862C44.9118 136.233 37.3149 143.83 27.9442 143.83C18.5734 143.83 10.9766 136.233 10.9766 126.862C10.9766 117.492 18.5734 109.895 27.9442 109.895C37.3149 109.895 44.9118 117.492 44.9118 126.862Z" fill="#EF7F71"></path><path fill-rule="evenodd" clip-rule="evenodd" d="M66.1637 126.862C66.1637 136.233 58.5668 143.83 49.1961 143.83C39.8254 143.83 32.2285 136.233 32.2285 126.862C32.2285 117.492 39.8254 109.895 49.1961 109.895C58.5668 109.895 66.1637 117.492 66.1637 126.862Z" fill="#EF7F71"></path><path fill-rule="evenodd" clip-rule="evenodd" d="M58.5368 113.677C58.5368 123.048 50.9399 130.645 41.5692 130.645C32.1984 130.645 24.6016 123.048 24.6016 113.677C24.6016 104.306 32.1984 96.7093 41.5692 96.7093C50.9399 96.7093 58.5368 104.306 58.5368 113.677Z" fill="#EF7F71"></path><path fill-rule="evenodd" clip-rule="evenodd" d="M70.1403 119.673C70.1403 129.044 62.5434 136.641 53.1727 136.641C43.802 136.641 36.2051 129.044 36.2051 119.673C36.2051 110.302 43.802 102.705 53.1727 102.705C62.5434 102.705 70.1403 110.302 70.1403 119.673Z" fill="#EF7F71"></path></g><path d="M32 -3H313V133H32V-3Z" fill="url(#__2_uPwoy__paint0_linear_391_9302)"></path></g><defs><linearGradient id="__2_uPwoy__paint0_linear_391_9302" x1="313" y1="65" x2="32" y2="65" gradientUnits="userSpaceOnUse"><stop stop-color="white"></stop><stop offset="0.359175" stop-color="white"></stop><stop offset="1" stop-color="white" stop-opacity="0"></stop></linearGradient><clipPath id="__2_uPwoy__clip0_391_9302"><rect width="281" height="124" fill="white"></rect></clipPath></defs></svg>