<svg viewBox="0 0 42 42" fill="none" xmlns="http://www.w3.org/2000/svg"><g id="__kUIrAyP__Frame 212240"><path id="__kUIrAyP__Subtract" fill-rule="evenodd" clip-rule="evenodd" d="M21.5 3.64648C15.1487 3.64648 10 8.79521 10 15.1465C10 21.4978 15.1487 26.6465 21.5 26.6465C27.8513 26.6465 33 21.4978 33 15.1465C33 8.79521 27.8513 3.64648 21.5 3.64648ZM21.4998 5.64738C16.2531 5.64738 11.9998 9.90068 11.9998 15.1474C11.9998 20.3941 16.2531 24.6474 21.4998 24.6474C26.7465 24.6474 30.9998 20.3941 30.9998 15.1474C30.9998 9.90068 26.7465 5.64738 21.4998 5.64738Z" fill="#EFA180"></path><g id="__kUIrAyP__48 Health Certified"><g id="__kUIrAyP__Vector"><path d="M21.4999 0C13.4313 0 6.86719 6.56415 6.86719 14.6327C6.86719 22.7012 13.4313 29.2618 21.4999 29.2618C29.5684 29.2618 36.1325 22.6977 36.1325 14.6292C36.1325 6.56063 29.5684 0 21.4999 0ZM21.4999 25.8981C15.2881 25.8981 10.2336 20.8445 10.2336 14.6327C10.2336 11.6447 11.4206 8.77907 13.5334 6.66624C15.6463 4.55341 18.5119 3.36643 21.4999 3.36643C24.4879 3.36643 27.3535 4.55341 29.4663 6.66624C31.5791 8.77907 32.7661 11.6447 32.7661 14.6327C32.7661 20.8445 27.7116 25.8981 21.4999 25.8981Z" fill="#EFA180"></path><path d="M11.1139 39.6145C11.114 40.0144 11.2146 40.408 11.4065 40.7589C11.5983 41.1098 11.8754 41.4068 12.2121 41.6227C12.5488 41.8385 12.9343 41.9663 13.3333 41.9942C13.7323 42.0221 14.1319 41.9492 14.4953 41.7823L20.9725 38.8034V30.3113C17.3278 30.2028 13.8376 28.8147 11.1139 26.3904V39.6145Z" fill="#E42A12"></path><path d="M22.0267 38.8025L28.5038 41.7806C28.8672 41.9477 29.2667 42.0207 29.6657 41.993C30.0647 41.9652 30.4503 41.8376 30.7871 41.6218C31.1238 41.406 31.4009 41.109 31.5928 40.758C31.7847 40.4071 31.8852 40.0136 31.8852 39.6136V26.3904C29.161 28.8138 25.6711 30.2015 22.0267 30.3105V38.8025Z" fill="#E42A12"></path><path d="M33.4788 13.7694C33.5545 14.1477 32.5451 14.3747 32.5451 14.7529C32.5451 15.7364 32.4694 16.7199 32.1668 17.6277C30.8807 22.3181 26.6442 25.7981 21.4999 25.7981C19.079 25.7981 16.9608 25.0416 15.1451 23.7555C13.859 22.9233 12.8755 21.7129 12.0434 20.4268C11.0599 18.7625 10.379 16.7199 10.379 14.6773C10.379 9.15468 13.78 3.83217 19 3C19.1513 2.92435 20.3487 3 20.5 3C20.9539 2.92435 21.1216 3 21.4999 3C22.4077 3 24.6773 3.13947 25.5094 3.36643C30.0485 4.50121 33.1006 9.00337 33.4788 13.7694ZM27.779 17.7033C28.3842 17.6277 28.5355 16.7199 28.1572 16.3416C27.6277 15.8877 27.1738 15.3581 26.6442 14.9042C26.4929 14.7529 25.812 13.9964 25.4338 13.7694C25.4338 13.6938 25.4338 13.5425 25.5094 13.4668C25.5851 13.0886 25.6607 12.6347 25.7364 12.2564C25.8877 11.5755 25.9633 10.8947 26.1146 10.2138C26.2659 9.53293 25.5851 8.92772 24.9042 9.30598C23.8451 9.91119 22.7103 10.4408 21.6512 11.046C20.592 10.4408 19.4573 9.91119 18.3981 9.30598C17.7173 8.92772 17.0364 9.53293 17.1877 10.2138C17.339 10.8947 17.4147 11.5755 17.566 12.2564C17.6416 12.6347 17.6416 13.0886 17.7929 13.4668C17.7929 13.5425 17.7929 13.6938 17.8686 13.7694C17.4903 14.072 16.8851 14.7529 16.6581 14.9042C16.2042 15.3581 15.6747 15.8877 15.1451 16.3416C14.7668 16.7199 14.8425 17.6277 15.5234 17.7033C16.2042 17.779 16.8851 17.9303 17.566 18.0059C17.8686 18.0816 18.9277 18.2329 19.306 18.2329C19.3816 18.6112 19.9112 19.519 20.0625 19.7459C20.3651 20.3512 20.6677 20.9564 20.9703 21.6372C21.2729 22.1668 22.1051 22.1668 22.4077 21.6372C22.7103 21.032 23.0129 20.4268 23.3155 19.7459C23.4668 19.4433 23.9964 18.5355 24.072 18.2329C24.4503 18.2329 25.5094 18.0059 25.812 18.0059C26.4172 17.8546 27.0981 17.779 27.779 17.7033Z" fill="#EFA180"></path></g></g></g></svg>