<svg viewBox="0 0 99 158" fill="none" xmlns="http://www.w3.org/2000/svg"><path fill-rule="evenodd" clip-rule="evenodd" d="M21.1736 18.0772C20.9776 17.7636 20.7815 17.5283 20.5071 17.2931C20.2327 17.0579 19.9191 16.9011 19.5662 16.7835C19.2134 16.6659 18.8606 16.5875 18.4685 16.5875C17.7629 16.5875 17.1748 16.7051 16.7043 16.9795C16.2339 17.2539 15.8419 17.6068 15.5282 18.038C15.2146 18.4692 15.0186 18.9789 14.8618 19.5669C14.7442 20.1158 14.6657 20.7039 14.6657 21.3311C14.6657 21.9192 14.7442 22.468 14.8618 23.0169C14.9794 23.5657 15.2146 24.0754 15.5282 24.5066C15.8419 24.9379 16.2339 25.2907 16.7043 25.5651C17.1748 25.8396 17.7629 25.9572 18.4685 25.9572C19.4094 25.9572 20.1543 25.6828 20.6639 25.0947C21.2128 24.5066 21.5264 23.7618 21.644 22.8209H24.6235C24.5451 23.6834 24.3491 24.4674 23.9963 25.1731C23.6826 25.8788 23.2514 26.4668 22.7025 26.9765C22.1537 27.4861 21.5264 27.839 20.8208 28.1134C20.1151 28.3878 19.2918 28.5054 18.4293 28.5054C17.3708 28.5054 16.3907 28.3094 15.5282 27.9566C14.6657 27.6037 13.9601 27.0941 13.3328 26.4276C12.7448 25.8004 12.2743 25.0163 11.9607 24.1538C11.647 23.2913 11.4902 22.3504 11.4902 21.3311C11.4902 20.3118 11.647 19.3317 11.9607 18.43C12.2743 17.5283 12.7448 16.7835 13.3328 16.117C13.9209 15.4505 14.6657 14.9409 15.5282 14.5489C16.3907 14.1568 17.3316 14 18.4293 14C19.2134 14 19.9191 14.1176 20.6247 14.3136C21.2912 14.5489 21.9185 14.8625 22.4673 15.2937C23.0162 15.725 23.4474 16.2346 23.8002 16.8619C24.1531 17.4891 24.3883 18.1948 24.4667 18.9789H21.4872C21.4872 18.7045 21.3696 18.3908 21.1736 18.0772ZM28.6615 25.8788C29.0928 26.2708 29.6808 26.4668 30.4649 26.4668C31.0138 26.4668 31.5234 26.3492 31.9154 26.0356C32.3075 25.7612 32.5819 25.4475 32.6603 25.1339H35.1302C34.7381 26.3492 34.1109 27.2117 33.3268 27.7214C32.5035 28.231 31.5234 28.5054 30.3865 28.5054C29.6024 28.5054 28.8575 28.3878 28.2303 28.1134C27.603 27.839 27.0542 27.4861 26.5837 27.0549C26.1525 26.5844 25.7996 26.0356 25.5644 25.3691C25.3292 24.7419 25.2116 23.997 25.2116 23.2521C25.2116 22.5072 25.3292 21.8016 25.5644 21.1743C25.7996 20.547 26.1525 19.959 26.6229 19.4885C27.0934 19.0181 27.6422 18.6261 28.2695 18.3908C28.8967 18.1164 29.6024 17.9988 30.3865 17.9988C31.249 17.9988 31.9939 18.1556 32.6603 18.5084C33.2876 18.8613 33.8364 19.2925 34.2285 19.8414C34.6205 20.3902 34.9341 21.0175 35.1302 21.7624C35.3262 22.468 35.3654 23.2129 35.3262 23.997H27.9951C28.0343 24.8203 28.2695 25.4475 28.6615 25.8788ZM31.837 20.5862C31.4842 20.2334 30.9746 20.0374 30.3081 20.0374C29.8768 20.0374 29.4848 20.1158 29.2104 20.2726C28.8967 20.4294 28.6615 20.6255 28.5047 20.8215C28.3087 21.0567 28.1911 21.2919 28.1519 21.5271C28.0735 21.7624 28.0343 21.9976 28.0343 22.1936H32.5819C32.3859 21.4487 32.1507 20.9391 31.837 20.5862ZM39.2466 20.0766V18.1948H36.6199V28.2702H39.4034V23.7618C39.4034 23.2913 39.4426 22.8993 39.521 22.5072C39.5994 22.1152 39.7562 21.7624 39.9914 21.4879C40.2267 21.1743 40.5011 20.9783 40.8539 20.7823C41.2068 20.6255 41.638 20.5078 42.1477 20.5078C42.3045 20.5078 42.4613 20.5078 42.6573 20.547H42.6965C42.8925 20.547 43.0493 20.5862 43.1669 20.6255V18.0772C42.9317 17.9988 42.7357 17.9988 42.5397 17.9988C42.1869 17.9988 41.834 18.038 41.5204 18.1556C41.2068 18.2732 40.8931 18.43 40.5795 18.5869C40.3051 18.7829 40.0306 19.0181 39.7954 19.2533C39.5602 19.5277 39.4034 19.8022 39.2466 20.1158V20.0766ZM50.6157 18.234V20.0766H48.5771V25.0555C48.5771 25.5259 48.6555 25.8396 48.8123 25.9964C48.9691 26.1532 49.2828 26.2316 49.7532 26.2316C49.91 26.2316 50.0668 26.2316 50.2236 26.2316C50.3805 26.2316 50.4981 26.1924 50.6157 26.1924V28.3094C50.3805 28.3486 50.106 28.3878 49.8316 28.3878C49.5572 28.3878 49.2436 28.427 48.9691 28.427C48.5379 28.427 48.1066 28.3878 47.7538 28.3486C47.3618 28.3094 47.0089 28.1918 46.7345 27.9958C46.4209 27.839 46.2249 27.6037 46.0288 27.2901C45.872 26.9765 45.7544 26.5844 45.7544 26.0748V20.0766H44.0686V18.234H45.7544V15.2153H48.5379V18.234H50.6157ZM52.223 14.392V16.6659H55.0065V14.392H52.223ZM55.0457 28.2702V18.234H52.2622V28.2702H55.0457ZM56.1434 20.0766V18.234H57.8292V17.4499C57.8292 16.5483 58.1036 15.8426 58.6917 15.2545C59.2405 14.6665 60.103 14.392 61.2399 14.392C61.4752 14.392 61.7496 14.392 61.9848 14.4312C62.0632 14.4312 62.1808 14.4312 62.2592 14.4312C62.416 14.4312 62.5729 14.4704 62.7297 14.4704V16.5483C62.416 16.509 62.0632 16.509 61.7104 16.509C61.3183 16.509 61.0439 16.5875 60.8871 16.7835C60.7303 16.9403 60.6519 17.2539 60.6519 17.6852V18.2732H62.5729V20.0766H60.6519V28.2702H57.8684V20.0766H56.1434ZM64.4154 14.392V16.6659H67.1989V14.392H64.4154ZM67.1989 28.2702V18.234H64.4154V28.2702H67.1989ZM71.629 25.8788C72.0602 26.2708 72.6483 26.4668 73.4323 26.4668C73.9812 26.4668 74.4908 26.3492 74.8829 26.0356C75.2749 25.7612 75.5493 25.4475 75.6277 25.1339H78.0976C77.7056 26.3492 77.0783 27.2117 76.2942 27.7214C75.4709 28.231 74.4908 28.5054 73.3539 28.5054C72.5698 28.5054 71.825 28.3878 71.1977 28.1134C70.5704 27.839 70.0216 27.4861 69.5512 27.0549C69.1199 26.5844 68.7671 26.0356 68.5318 25.3691C68.2966 24.7419 68.179 23.997 68.179 23.2521C68.179 22.5072 68.2966 21.8016 68.5318 21.1743C68.7671 20.547 69.1199 19.959 69.5904 19.4885C70.0608 19.0181 70.6096 18.6261 71.2369 18.3908C71.8642 18.1164 72.5698 17.9988 73.3539 17.9988C74.2164 17.9988 74.9613 18.1556 75.6277 18.5084C76.255 18.8613 76.8039 19.2925 77.1959 19.8414C77.5879 20.3902 77.9016 21.0175 78.0976 21.7624C78.2936 22.468 78.3328 23.2129 78.2936 23.997H70.9625C70.9625 24.8203 71.1977 25.4475 71.629 25.8788ZM74.7653 20.5862C74.4516 20.2334 73.9028 20.0374 73.2363 20.0374C72.8051 20.0374 72.413 20.1158 72.1386 20.2726C71.825 20.4294 71.5897 20.6255 71.4329 20.8215C71.2369 21.0567 71.1193 21.2919 71.0801 21.5271C71.0017 21.7624 70.9625 21.9976 70.9625 22.1936H75.5101C75.3533 21.4487 75.1181 20.9391 74.7653 20.5862ZM85.4679 28.1526C86.0168 27.9174 86.4088 27.5253 86.7616 26.9765H86.8008V28.2702H89.4275V14.392H86.644V19.4493H86.6048C86.2912 18.9397 85.8599 18.5869 85.3111 18.3516C84.7622 18.0772 84.2134 17.9596 83.5861 17.9596C82.8413 17.9596 82.1748 18.1164 81.6259 18.3908C81.0771 18.6653 80.6066 19.0573 80.2146 19.5277C79.8618 19.9982 79.5481 20.547 79.3521 21.1743C79.1561 21.8016 79.0777 22.468 79.0777 23.1345C79.0777 23.8402 79.1561 24.5066 79.3521 25.1731C79.5481 25.8004 79.8226 26.3884 80.2146 26.8981C80.5674 27.4077 81.0771 27.7998 81.6259 28.0742C82.214 28.3878 82.8805 28.5054 83.6253 28.5054C84.331 28.5054 84.9191 28.3878 85.4679 28.1526ZM86.2128 21.0175C86.4088 21.3311 86.5264 21.6448 86.6048 22.0368C86.6832 22.4288 86.7224 22.8209 86.7224 23.2129C86.7224 23.6441 86.6832 24.0362 86.6048 24.4282C86.5264 24.8203 86.4088 25.1731 86.2128 25.4475C86.0168 25.7612 85.7815 25.9964 85.4679 26.1924C85.1543 26.3884 84.7622 26.4668 84.331 26.4668C83.8998 26.4668 83.5077 26.3884 83.2333 26.1924C82.9197 25.9964 82.6844 25.7612 82.4492 25.4475C82.2532 25.1339 82.0964 24.7811 82.018 24.389C81.9396 23.997 81.9004 23.6049 81.9004 23.2129C81.9004 22.7817 81.9396 22.3896 82.018 22.0368C82.0964 21.6448 82.2532 21.2919 82.41 21.0175C82.606 20.7039 82.8413 20.4686 83.1549 20.3118C83.4685 20.1158 83.8605 20.0374 84.331 20.0374C84.8014 20.0374 85.1543 20.1158 85.4679 20.3118C85.7815 20.4686 86.056 20.7039 86.2128 21.0175ZM84.4094 73.5115C84.4094 91.9373 69.2767 106.913 50.6157 106.913C31.9546 106.913 16.822 91.9765 16.822 73.5115C16.822 55.0856 31.9546 40.1098 50.6157 40.1098C69.2767 40.1098 84.4094 55.0464 84.4094 73.5115ZM50.6157 35.0133C29.132 35.0133 11.6863 52.2238 11.6863 73.4723C11.6863 94.7207 29.0928 111.931 50.6157 111.931C72.0994 111.931 89.5451 94.7207 89.5451 73.4723C89.5451 52.2238 72.0994 35.0133 50.6157 35.0133ZM34.3461 51.5181H50.4589C54.3793 51.5181 59.5542 51.5181 62.22 53.1255C65.1603 54.8504 67.4341 57.9867 67.4341 62.2992C67.4341 66.9644 64.9643 70.4928 60.8479 72.1393V72.2569C66.3364 73.3546 69.3159 77.4318 69.3159 82.842C69.3159 89.3106 64.6507 95.4656 55.8298 95.4656H34.3853V51.5181H34.3461ZM40.2267 70.4143H52.0662C58.7701 70.4143 61.5144 68.0229 61.5144 63.3969C61.5144 57.3203 57.1627 56.4578 52.0662 56.4578H40.2267V70.4143ZM40.2267 90.5259H55.0457C60.1422 90.5259 63.3961 87.468 63.3961 82.646C63.3961 76.9222 58.7309 75.3148 53.752 75.3148H40.2267V90.5259ZM87.1145 114.519H87.1537C87.1929 114.519 87.1929 114.519 87.2321 114.519H87.2713C87.3497 114.519 87.4281 114.479 87.5065 114.479C87.5849 114.44 87.6241 114.401 87.6633 114.362C87.7025 114.283 87.7025 114.205 87.7025 114.127C87.7025 114.048 87.7025 113.97 87.6633 113.931C87.6241 113.891 87.5849 113.852 87.5457 113.813C87.5065 113.774 87.4281 113.774 87.3497 113.735C87.2713 113.735 87.2321 113.735 87.1145 113.735H86.5656V114.597H86.9969C87.0361 114.519 87.0753 114.519 87.1145 114.519ZM87.1929 113.303C87.5065 113.303 87.7417 113.382 87.8986 113.499C88.0554 113.617 88.1338 113.813 88.1338 114.087C88.1338 114.323 88.0554 114.519 87.9378 114.636C87.8201 114.754 87.6241 114.793 87.4281 114.832L88.2122 116.008H87.7417L86.9969 114.872H86.5656V116.008H86.1344V113.343L87.1929 113.303ZM85.3111 115.42C85.3895 115.656 85.5463 115.891 85.7031 116.048C85.8599 116.204 86.056 116.361 86.2912 116.479C86.5264 116.557 86.7617 116.636 87.0361 116.636C87.3105 116.636 87.5457 116.596 87.7809 116.479C88.0162 116.361 88.2122 116.244 88.369 116.048C88.5258 115.891 88.6826 115.656 88.761 115.42C88.8394 115.185 88.9179 114.911 88.9179 114.636C88.9179 114.362 88.8787 114.087 88.761 113.852C88.6826 113.617 88.5258 113.421 88.369 113.225C88.173 113.068 87.977 112.911 87.7809 112.833C87.5457 112.755 87.3105 112.676 87.0361 112.676C86.7617 112.676 86.5264 112.715 86.2912 112.833C86.056 112.951 85.8599 113.068 85.7031 113.225C85.5071 113.382 85.3895 113.617 85.3111 113.852C85.2327 114.087 85.1543 114.323 85.1543 114.636C85.1543 114.911 85.1935 115.185 85.3111 115.42ZM84.9191 113.735C85.0367 113.46 85.1935 113.225 85.4287 113.029C85.6247 112.833 85.8992 112.676 86.1736 112.558C86.448 112.441 86.7616 112.402 87.0753 112.402C87.3889 112.402 87.7025 112.441 87.977 112.558C88.2514 112.676 88.4866 112.833 88.7218 113.029C88.9179 113.225 89.1139 113.46 89.2315 113.735C89.3491 114.009 89.4275 114.323 89.4275 114.636C89.4275 114.95 89.3883 115.264 89.2315 115.538C89.1139 115.812 88.9571 116.048 88.7218 116.283C88.5258 116.479 88.2514 116.636 87.977 116.753C87.7025 116.871 87.3889 116.91 87.0753 116.91C86.7616 116.91 86.448 116.871 86.1736 116.753C85.8992 116.636 85.6247 116.479 85.4287 116.283C85.2327 116.087 85.0367 115.852 84.9191 115.538C84.8014 115.264 84.723 114.95 84.723 114.636C84.723 114.323 84.7622 114.009 84.9191 113.735ZM89.4667 120.046H11.7647V125.104H89.4275V120.046H89.4667ZM16.4299 133.297C17.5276 133.297 18.4685 134.042 18.5861 135.022H20.7031C20.4287 132.748 18.6253 131.494 16.4299 131.494C13.372 131.494 11.5686 133.768 11.5686 136.669C11.5686 139.492 13.372 141.765 16.4299 141.765C18.8606 141.765 20.5463 140.197 20.7815 137.767H18.6645C18.5077 139.06 17.7629 139.962 16.4299 139.962C14.4697 139.962 13.7641 138.315 13.7641 136.708C13.7249 134.944 14.4697 133.297 16.4299 133.297ZM29.0144 137.963C29.0144 135.689 27.5638 134.238 25.29 134.238C23.0554 134.238 21.6048 135.728 21.6048 137.963C21.6048 140.197 23.0554 141.687 25.29 141.687C27.5638 141.687 29.0144 140.236 29.0144 137.963ZM27.0542 137.963C27.0542 139.06 26.6621 140.236 25.3292 140.236C23.9963 140.236 23.6042 139.1 23.6042 137.963C23.6042 136.826 23.9963 135.689 25.3292 135.689C26.6621 135.689 27.0542 136.826 27.0542 137.963ZM30.2297 134.395H32.1115V135.728H32.1507C32.5035 134.826 33.4836 134.238 34.4245 134.238C34.5421 134.238 34.7381 134.277 34.8557 134.317V136.12C34.6597 136.081 34.3853 136.042 34.1501 136.042C32.6995 136.042 32.1899 137.061 32.1899 138.315V141.491H30.2297V134.395ZM37.4824 134.434H35.6006V144H37.5608V140.628H37.6C38.0705 141.334 38.8937 141.687 39.7562 141.687C41.834 141.687 42.8925 139.923 42.8925 138.041C42.8925 136.042 41.8732 134.238 39.6386 134.238C38.7369 134.238 37.992 134.591 37.5216 135.336H37.4824V134.434ZM39.2466 135.689C40.5011 135.689 40.9715 136.865 40.9715 137.963C40.9715 139.1 40.5403 140.197 39.2858 140.197C38.0312 140.197 37.5608 139.1 37.5608 137.963C37.5216 136.826 37.9528 135.689 39.2466 135.689ZM47.2442 134.238C49.518 134.238 50.9685 135.728 50.9685 137.963C50.9685 140.197 49.518 141.687 47.2442 141.687C45.0095 141.687 43.559 140.197 43.559 137.963C43.5198 135.689 44.9703 134.238 47.2442 134.238ZM47.2442 140.236C48.5771 140.236 49.0083 139.1 49.0083 137.963C49.0083 136.826 48.6163 135.689 47.2442 135.689C45.9112 135.689 45.5192 136.826 45.5192 137.963C45.48 139.1 45.9112 140.236 47.2442 140.236ZM54.0264 134.395H52.1446V141.491H54.1048V138.315C54.1048 137.061 54.6145 136.042 56.065 136.042C56.3003 136.042 56.6139 136.081 56.7707 136.12V134.317C56.6531 134.277 56.4963 134.238 56.3394 134.238C55.3986 134.238 54.4185 134.865 54.0656 135.728H54.0264V134.395ZM57.3587 136.59C57.4764 134.748 59.1229 134.238 60.7303 134.238C62.1416 134.238 63.8666 134.552 63.8666 136.238V139.923C63.8666 140.55 63.945 141.217 64.1018 141.491H62.1024C62.024 141.256 61.9848 141.021 61.9848 140.824C61.3575 141.452 60.4559 141.687 59.5934 141.687C58.2212 141.687 57.1627 141.021 57.1627 139.57C57.1627 137.963 58.3781 137.571 59.5934 137.414C59.7894 137.375 60.0246 137.375 60.2206 137.335C61.1615 137.218 61.9456 137.139 61.9456 136.473C61.9456 135.65 61.3575 135.532 60.6911 135.532C59.9462 135.532 59.4758 135.846 59.3974 136.59H57.3587ZM61.9064 138.041C61.6712 138.237 61.2007 138.315 60.7303 138.394C60.5735 138.433 60.4166 138.433 60.2598 138.472C59.6326 138.59 59.0837 138.786 59.0837 139.531C59.0837 140.236 59.6326 140.432 60.299 140.432C61.828 140.432 61.9064 139.217 61.9064 138.825V138.041ZM69.2767 134.434H67.8262V132.317H65.866V134.434H64.6899V135.728H65.866V139.923C65.866 141.334 66.9245 141.609 68.1398 141.609C68.5318 141.609 68.9631 141.609 69.2767 141.53V140.001C69.0807 140.04 68.8847 140.04 68.6495 140.04C67.983 140.04 67.8262 139.884 67.8262 139.217V135.728H69.2767V134.434ZM72.7267 133.337H70.7665V131.729H72.7267V133.337ZM70.7665 134.434H72.7267V141.53H70.7665V134.434ZM81.4691 137.963C81.4691 135.689 80.0186 134.238 77.7448 134.238C75.5101 134.238 74.0596 135.728 74.0596 137.963C74.0596 140.197 75.5101 141.687 77.7448 141.687C80.0186 141.687 81.4691 140.236 81.4691 137.963ZM79.5089 137.963C79.5089 139.06 79.1169 140.236 77.7448 140.236C76.4118 140.236 76.0198 139.1 76.0198 137.963C76.0198 136.826 76.4118 135.689 77.7448 135.689C79.0777 135.689 79.5089 136.826 79.5089 137.963ZM82.7236 134.434H84.6054V135.414H84.6446C85.1543 134.63 86.0168 134.238 86.8401 134.238C88.9179 134.238 89.4667 135.414 89.4667 137.139V141.491H87.5065V137.492C87.5065 136.316 87.1537 135.767 86.252 135.767C85.1935 135.767 84.723 136.355 84.723 137.806V141.53H82.7628V134.434H82.7236Z" fill="#151515"></path></svg>