<svg viewBox="0 0 29 29" version="1.1" xmlns="http://www.w3.org/2000/svg" xmlns:xlink="http://www.w3.org/1999/xlink"><g id="__3HHQxnh__Page-1" stroke="none" stroke-width="1" fill="none" fill-rule="evenodd"><g id="__3HHQxnh__-homepage_5-Alt" transform="translate(-1225.000000, -4702.000000)" fill="#919191" fill-rule="nonzero"><g id="__3HHQxnh__Group-38" transform="translate(0.000000, 4344.000000)"><g id="__3HHQxnh__Group-37" transform="translate(137.000000, 48.000000)"><g id="__3HHQxnh__Group-Copy-3" transform="translate(1047.000000, 272.000000)"><g id="__3HHQxnh__tiktok-share-icon-black-1" transform="translate(41.000000, 38.000000)"><path d="M25.547619,0 L3.45238095,0 C1.5487381,0 0,1.5487381 0,3.45238095 L0,25.547619 C0,27.4512619 1.5487381,29 3.45238095,29 L25.547619,29 C27.4512619,29 29,27.4512619 29,25.547619 L29,3.45238095 C29,1.5487381 27.4512619,0 25.547619,0 M22.7898571,12.6515952 C22.6315045,12.6669826 22.4725255,12.6750468 22.3134286,12.6757619 C20.5683475,12.6760055 18.9407613,11.7963976 17.9848333,10.3364286 L17.9848333,18.3024524 C17.9848333,21.554134 15.3488245,24.1901429 12.0971429,24.1901429 C8.8454612,24.1901429 6.20945238,21.554134 6.20945238,18.3024524 C6.20945238,15.0507707 8.8454612,12.4147619 12.0971429,12.4147619 C12.2200476,12.4147619 12.3401905,12.4258095 12.4610238,12.4334048 L12.4610238,15.3347857 C12.3401905,15.3202857 12.2214286,15.2981905 12.0971429,15.2981905 C10.4375535,15.2981905 9.09219048,16.6435535 9.09219048,18.3031429 C9.09219048,19.9627322 10.4375535,21.3080952 12.0971429,21.3080952 C13.7570476,21.3080952 15.2229286,20.0003333 15.2229286,18.3404286 L15.2519286,4.8112381 L18.0276429,4.8112381 C18.2893825,7.30035975 20.2964349,9.24459173 22.792619,9.42707143 L22.792619,12.6515952" id="__3HHQxnh__Shape"></path></g></g></g></g></g></g></svg>