<svg version="1.1" id="__1cq5ay-__Layer_1" xmlns="http://www.w3.org/2000/svg" xmlns:xlink="http://www.w3.org/1999/xlink" x="0px" y="0px" viewBox="0 0 40 40" style="enable-background:new 0 0 40 40;" xml:space="preserve"><path id="__1cq5ay-__path-1_1_" d="M15.9,25.9V14.1L26.4,20L15.9,25.9z M39.2,10.4c-0.5-1.7-1.8-3.1-3.5-3.5C32.5,6,20,6,20,6S7.5,6,4.4,6.8 c-1.7,0.5-3.1,1.9-3.6,3.6C0,13.5,0,20,0,20s0,6.5,0.8,9.6c0.5,1.7,1.8,3.1,3.5,3.5C7.5,34,20,34,20,34s12.5,0,15.6-0.8 c1.7-0.5,3.1-1.8,3.5-3.5C40,26.5,40,20,40,20S40,13.5,39.2,10.4z"></path></svg>